<mxfile host="Electron" agent="Mozilla/5.0 (Windows NT 10.0; Win64; x64) AppleWebKit/537.36 (KHTML, like Gecko) draw.io/28.1.2 Chrome/138.0.7204.243 Electron/37.4.0 Safari/537.36" version="28.1.2">
  <diagram name="Page-1" id="t_h60iStYAsj_ZKKakiO">
    <mxGraphModel dx="872" dy="537" grid="1" gridSize="10" guides="1" tooltips="1" connect="1" arrows="1" fold="1" page="1" pageScale="1" pageWidth="827" pageHeight="1169" math="0" shadow="0">
      <root>
        <mxCell id="0" />
        <mxCell id="1" parent="0" />
        <mxCell id="WACMrJMDsqhWbpVsW9vI-1" value="&lt;b&gt;ROUTER 1&lt;/b&gt;" style="shape=mxgraph.cisco.routers.atm_router;html=1;pointerEvents=1;dashed=0;fillColor=#036897;strokeColor=#ffffff;strokeWidth=2;verticalLabelPosition=bottom;verticalAlign=top;align=center;outlineConnect=0;" vertex="1" parent="1">
          <mxGeometry x="290" y="40" width="78" height="53" as="geometry" />
        </mxCell>
        <mxCell id="WACMrJMDsqhWbpVsW9vI-31" style="edgeStyle=orthogonalEdgeStyle;rounded=0;orthogonalLoop=1;jettySize=auto;html=1;endArrow=none;endFill=0;strokeWidth=3;fillColor=#6a00ff;strokeColor=#3700CC;" edge="1" parent="1" source="WACMrJMDsqhWbpVsW9vI-2" target="WACMrJMDsqhWbpVsW9vI-7">
          <mxGeometry relative="1" as="geometry" />
        </mxCell>
        <mxCell id="WACMrJMDsqhWbpVsW9vI-2" value="&lt;b&gt;SWITCH 1&lt;/b&gt;" style="sketch=0;points=[[0.015,0.015,0],[0.985,0.015,0],[0.985,0.985,0],[0.015,0.985,0],[0.25,0,0],[0.5,0,0],[0.75,0,0],[1,0.25,0],[1,0.5,0],[1,0.75,0],[0.75,1,0],[0.5,1,0],[0.25,1,0],[0,0.75,0],[0,0.5,0],[0,0.25,0]];verticalLabelPosition=bottom;html=1;verticalAlign=top;aspect=fixed;align=center;pointerEvents=1;shape=mxgraph.cisco19.rect;prIcon=l2_switch;fillColor=#FAFAFA;strokeColor=#005073;" vertex="1" parent="1">
          <mxGeometry x="304" y="200" width="50" height="50" as="geometry" />
        </mxCell>
        <mxCell id="WACMrJMDsqhWbpVsW9vI-3" value="&lt;b&gt;SWITCH 2&lt;/b&gt;" style="sketch=0;points=[[0.015,0.015,0],[0.985,0.015,0],[0.985,0.985,0],[0.015,0.985,0],[0.25,0,0],[0.5,0,0],[0.75,0,0],[1,0.25,0],[1,0.5,0],[1,0.75,0],[0.75,1,0],[0.5,1,0],[0.25,1,0],[0,0.75,0],[0,0.5,0],[0,0.25,0]];verticalLabelPosition=bottom;html=1;verticalAlign=top;aspect=fixed;align=center;pointerEvents=1;shape=mxgraph.cisco19.rect;prIcon=l2_switch;fillColor=#FAFAFA;strokeColor=#005073;" vertex="1" parent="1">
          <mxGeometry x="550" y="200" width="50" height="50" as="geometry" />
        </mxCell>
        <mxCell id="WACMrJMDsqhWbpVsW9vI-4" style="edgeStyle=orthogonalEdgeStyle;rounded=0;orthogonalLoop=1;jettySize=auto;html=1;entryX=0.5;entryY=0;entryDx=0;entryDy=0;entryPerimeter=0;strokeWidth=3;endArrow=none;endFill=0;fillColor=#a20025;strokeColor=#6F0000;" edge="1" parent="1" source="WACMrJMDsqhWbpVsW9vI-1" target="WACMrJMDsqhWbpVsW9vI-2">
          <mxGeometry relative="1" as="geometry" />
        </mxCell>
        <mxCell id="WACMrJMDsqhWbpVsW9vI-5" style="edgeStyle=orthogonalEdgeStyle;rounded=0;orthogonalLoop=1;jettySize=auto;html=1;entryX=0;entryY=0.5;entryDx=0;entryDy=0;entryPerimeter=0;strokeWidth=3;endArrow=none;endFill=0;fillColor=#a20025;strokeColor=#6F0000;" edge="1" parent="1" source="WACMrJMDsqhWbpVsW9vI-2" target="WACMrJMDsqhWbpVsW9vI-3">
          <mxGeometry relative="1" as="geometry" />
        </mxCell>
        <mxCell id="WACMrJMDsqhWbpVsW9vI-7" value="&lt;b&gt;DHCP BACKUP&lt;/b&gt;" style="verticalLabelPosition=bottom;sketch=0;aspect=fixed;html=1;verticalAlign=top;strokeColor=none;align=center;outlineConnect=0;shape=mxgraph.citrix.dhcp_server;" vertex="1" parent="1">
          <mxGeometry x="130" y="270" width="59.11" height="70" as="geometry" />
        </mxCell>
        <mxCell id="WACMrJMDsqhWbpVsW9vI-12" value="&lt;b&gt;PC1&lt;/b&gt;" style="fontColor=#ffffff;verticalAlign=top;verticalLabelPosition=bottom;labelPosition=center;align=center;html=1;outlineConnect=0;fillColor=#0050ef;strokeColor=#001DBC;gradientDirection=north;strokeWidth=2;shape=mxgraph.networks.pc;" vertex="1" parent="1">
          <mxGeometry x="180" y="400" width="60" height="50" as="geometry" />
        </mxCell>
        <mxCell id="WACMrJMDsqhWbpVsW9vI-37" style="edgeStyle=orthogonalEdgeStyle;rounded=0;orthogonalLoop=1;jettySize=auto;html=1;endArrow=none;endFill=0;strokeWidth=3;fillColor=#6a00ff;strokeColor=#3700CC;" edge="1" parent="1" source="WACMrJMDsqhWbpVsW9vI-13" target="WACMrJMDsqhWbpVsW9vI-2">
          <mxGeometry relative="1" as="geometry" />
        </mxCell>
        <mxCell id="WACMrJMDsqhWbpVsW9vI-13" value="PC2" style="fontColor=#ffffff;verticalAlign=top;verticalLabelPosition=bottom;labelPosition=center;align=center;html=1;outlineConnect=0;fillColor=#0050ef;strokeColor=#001DBC;gradientDirection=north;strokeWidth=2;shape=mxgraph.networks.pc;fontStyle=1" vertex="1" parent="1">
          <mxGeometry x="304" y="400" width="60" height="50" as="geometry" />
        </mxCell>
        <mxCell id="WACMrJMDsqhWbpVsW9vI-14" value="&lt;b&gt;PC3&lt;/b&gt;" style="fontColor=#000000;verticalAlign=top;verticalLabelPosition=bottom;labelPosition=center;align=center;html=1;outlineConnect=0;fillColor=#fa6800;strokeColor=#C73500;gradientDirection=north;strokeWidth=2;shape=mxgraph.networks.pc;" vertex="1" parent="1">
          <mxGeometry x="410" y="400" width="60" height="50" as="geometry" />
        </mxCell>
        <mxCell id="WACMrJMDsqhWbpVsW9vI-16" value="&lt;b&gt;PC4&lt;/b&gt;" style="fontColor=#000000;verticalAlign=top;verticalLabelPosition=bottom;labelPosition=center;align=center;html=1;outlineConnect=0;fillColor=#fa6800;strokeColor=#C73500;gradientDirection=north;strokeWidth=2;shape=mxgraph.networks.pc;" vertex="1" parent="1">
          <mxGeometry x="510" y="310" width="60" height="50" as="geometry" />
        </mxCell>
        <mxCell id="WACMrJMDsqhWbpVsW9vI-17" value="&lt;b&gt;PC5&lt;/b&gt;" style="fontColor=#ffffff;verticalAlign=top;verticalLabelPosition=bottom;labelPosition=center;align=center;html=1;outlineConnect=0;fillColor=#0050ef;strokeColor=#001DBC;gradientDirection=north;strokeWidth=2;shape=mxgraph.networks.pc;" vertex="1" parent="1">
          <mxGeometry x="600" y="310" width="60" height="50" as="geometry" />
        </mxCell>
        <mxCell id="WACMrJMDsqhWbpVsW9vI-20" style="edgeStyle=orthogonalEdgeStyle;rounded=0;orthogonalLoop=1;jettySize=auto;html=1;entryX=0.5;entryY=0.07;entryDx=0;entryDy=0;entryPerimeter=0;endArrow=none;endFill=0;strokeWidth=3;fillColor=#6a00ff;strokeColor=#3700CC;" edge="1" parent="1" source="WACMrJMDsqhWbpVsW9vI-3" target="WACMrJMDsqhWbpVsW9vI-17">
          <mxGeometry relative="1" as="geometry" />
        </mxCell>
        <mxCell id="WACMrJMDsqhWbpVsW9vI-22" style="edgeStyle=orthogonalEdgeStyle;rounded=0;orthogonalLoop=1;jettySize=auto;html=1;entryX=0.25;entryY=1;entryDx=0;entryDy=0;entryPerimeter=0;strokeWidth=3;endSize=6;endArrow=none;endFill=0;fillColor=#fa6800;strokeColor=#C73500;" edge="1" parent="1" source="WACMrJMDsqhWbpVsW9vI-16" target="WACMrJMDsqhWbpVsW9vI-3">
          <mxGeometry relative="1" as="geometry">
            <mxPoint x="562" y="260" as="targetPoint" />
          </mxGeometry>
        </mxCell>
        <mxCell id="WACMrJMDsqhWbpVsW9vI-32" style="edgeStyle=orthogonalEdgeStyle;rounded=0;orthogonalLoop=1;jettySize=auto;html=1;entryX=0;entryY=0.25;entryDx=0;entryDy=0;entryPerimeter=0;endArrow=none;endFill=0;strokeWidth=3;fillColor=#6a00ff;strokeColor=#3700CC;" edge="1" parent="1" target="WACMrJMDsqhWbpVsW9vI-2">
          <mxGeometry relative="1" as="geometry">
            <mxPoint x="189.11" y="145" as="sourcePoint" />
          </mxGeometry>
        </mxCell>
        <mxCell id="WACMrJMDsqhWbpVsW9vI-33" value="&lt;b&gt;DHCP PRIMARY&lt;/b&gt;" style="verticalLabelPosition=bottom;sketch=0;aspect=fixed;html=1;verticalAlign=top;strokeColor=none;align=center;outlineConnect=0;shape=mxgraph.citrix.dhcp_server;" vertex="1" parent="1">
          <mxGeometry x="140" y="120" width="59.11" height="70" as="geometry" />
        </mxCell>
        <mxCell id="WACMrJMDsqhWbpVsW9vI-39" style="edgeStyle=orthogonalEdgeStyle;rounded=0;orthogonalLoop=1;jettySize=auto;html=1;entryX=1;entryY=0.75;entryDx=0;entryDy=0;entryPerimeter=0;strokeWidth=3;endSize=6;endArrow=none;endFill=0;fillColor=#fa6800;strokeColor=#C73500;" edge="1" parent="1" source="WACMrJMDsqhWbpVsW9vI-14" target="WACMrJMDsqhWbpVsW9vI-2">
          <mxGeometry relative="1" as="geometry" />
        </mxCell>
        <mxCell id="WACMrJMDsqhWbpVsW9vI-40" style="edgeStyle=orthogonalEdgeStyle;rounded=0;orthogonalLoop=1;jettySize=auto;html=1;entryX=0;entryY=0.75;entryDx=0;entryDy=0;entryPerimeter=0;endArrow=none;endFill=0;strokeWidth=3;fillColor=#6a00ff;strokeColor=#3700CC;" edge="1" parent="1" source="WACMrJMDsqhWbpVsW9vI-12" target="WACMrJMDsqhWbpVsW9vI-2">
          <mxGeometry relative="1" as="geometry" />
        </mxCell>
        <mxCell id="WACMrJMDsqhWbpVsW9vI-42" value="&lt;b&gt;VLAN 10&lt;/b&gt;" style="text;strokeColor=none;align=center;fillColor=none;html=1;verticalAlign=middle;whiteSpace=wrap;rounded=0;" vertex="1" parent="1">
          <mxGeometry x="180" y="470" width="60" height="30" as="geometry" />
        </mxCell>
        <mxCell id="WACMrJMDsqhWbpVsW9vI-44" value="&lt;b&gt;VLAN 10&lt;/b&gt;" style="text;strokeColor=none;align=center;fillColor=none;html=1;verticalAlign=middle;whiteSpace=wrap;rounded=0;" vertex="1" parent="1">
          <mxGeometry x="299" y="470" width="60" height="30" as="geometry" />
        </mxCell>
        <mxCell id="WACMrJMDsqhWbpVsW9vI-45" value="&lt;b&gt;VLAN 20&lt;/b&gt;" style="text;strokeColor=none;align=center;fillColor=none;html=1;verticalAlign=middle;whiteSpace=wrap;rounded=0;" vertex="1" parent="1">
          <mxGeometry x="410" y="470" width="60" height="30" as="geometry" />
        </mxCell>
        <mxCell id="WACMrJMDsqhWbpVsW9vI-46" value="&lt;b&gt;VLAN 20&lt;/b&gt;" style="text;strokeColor=none;align=center;fillColor=none;html=1;verticalAlign=middle;whiteSpace=wrap;rounded=0;" vertex="1" parent="1">
          <mxGeometry x="510" y="380" width="60" height="30" as="geometry" />
        </mxCell>
        <mxCell id="WACMrJMDsqhWbpVsW9vI-47" value="&lt;b&gt;PC6&lt;/b&gt;" style="fontColor=#000000;verticalAlign=top;verticalLabelPosition=bottom;labelPosition=center;align=center;html=1;outlineConnect=0;fillColor=#fa6800;strokeColor=#C73500;gradientDirection=north;strokeWidth=2;shape=mxgraph.networks.pc;" vertex="1" parent="1">
          <mxGeometry x="690" y="310" width="60" height="50" as="geometry" />
        </mxCell>
        <mxCell id="WACMrJMDsqhWbpVsW9vI-48" style="edgeStyle=orthogonalEdgeStyle;rounded=0;orthogonalLoop=1;jettySize=auto;html=1;entryX=0.5;entryY=0.07;entryDx=0;entryDy=0;entryPerimeter=0;strokeWidth=3;endSize=6;endArrow=none;endFill=0;fillColor=#fa6800;strokeColor=#C73500;" edge="1" parent="1" source="WACMrJMDsqhWbpVsW9vI-3" target="WACMrJMDsqhWbpVsW9vI-47">
          <mxGeometry relative="1" as="geometry" />
        </mxCell>
        <mxCell id="WACMrJMDsqhWbpVsW9vI-49" value="&lt;b&gt;VLAN 10&lt;/b&gt;" style="text;strokeColor=none;align=center;fillColor=none;html=1;verticalAlign=middle;whiteSpace=wrap;rounded=0;" vertex="1" parent="1">
          <mxGeometry x="610" y="380" width="60" height="30" as="geometry" />
        </mxCell>
        <mxCell id="WACMrJMDsqhWbpVsW9vI-50" value="&lt;b&gt;VLAN 20&lt;/b&gt;" style="text;strokeColor=none;align=center;fillColor=none;html=1;verticalAlign=middle;whiteSpace=wrap;rounded=0;" vertex="1" parent="1">
          <mxGeometry x="700" y="380" width="60" height="30" as="geometry" />
        </mxCell>
        <mxCell id="WACMrJMDsqhWbpVsW9vI-52" value="&lt;b&gt;TRUNK&lt;/b&gt;" style="text;html=1;align=center;verticalAlign=middle;resizable=0;points=[];autosize=1;strokeColor=none;fillColor=none;" vertex="1" parent="1">
          <mxGeometry x="294" y="130" width="70" height="30" as="geometry" />
        </mxCell>
        <mxCell id="WACMrJMDsqhWbpVsW9vI-54" value="&lt;b&gt;TRUNK&lt;/b&gt;" style="text;html=1;align=center;verticalAlign=middle;resizable=0;points=[];autosize=1;strokeColor=none;fillColor=none;" vertex="1" parent="1">
          <mxGeometry x="415" y="204" width="70" height="30" as="geometry" />
        </mxCell>
      </root>
    </mxGraphModel>
  </diagram>
</mxfile>
